<?xml version="1.0" standalone="no" ?>
<!DOCTYPE svg PUBLIC "-//W3C//DTD SVG 1.1//EN" "http://www.w3.org/Graphics/SVG/1.1/DTD/svg11.dtd">
<svg width="340px" height="340px" xmlns="http://www.w3.org/2000/svg" version="1.1" >
	<rect x="0" y="0" width="340" height="340" fill="rgb(0,0,0)" />
	<text x="10" y="16" fill="rgb(0,128,0)" font-size="10" font-family="Verdana" >H-tree Fractal</text>
	<polyline points="85,85 85,255 " fill="none" stroke-width="1" stroke="rgb(0,128,0)" />
	<polyline points="255,85 255,255 " fill="none" stroke-width="1" stroke="rgb(0,128,0)" />
	<polyline points="85,170 255,170 " fill="none" stroke-width="1" stroke="rgb(0,128,0)" />
	<polyline points="42.5,42.5 42.5,127.5 " fill="none" stroke-width="1" stroke="rgb(0,128,0)" />
	<polyline points="127.5,42.5 127.5,127.5 " fill="none" stroke-width="1" stroke="rgb(0,128,0)" />
	<polyline points="42.5,85 127.5,85 " fill="none" stroke-width="1" stroke="rgb(0,128,0)" />
	<polyline points="42.5,212.5 42.5,297.5 " fill="none" stroke-width="1" stroke="rgb(0,128,0)" />
	<polyline points="127.5,212.5 127.5,297.5 " fill="none" stroke-width="1" stroke="rgb(0,128,0)" />
	<polyline points="42.5,255 127.5,255 " fill="none" stroke-width="1" stroke="rgb(0,128,0)" />
	<polyline points="212.5,42.5 212.5,127.5 " fill="none" stroke-width="1" stroke="rgb(0,128,0)" />
	<polyline points="297.5,42.5 297.5,127.5 " fill="none" stroke-width="1" stroke="rgb(0,128,0)" />
	<polyline points="212.5,85 297.5,85 " fill="none" stroke-width="1" stroke="rgb(0,128,0)" />
	<polyline points="212.5,212.5 212.5,297.5 " fill="none" stroke-width="1" stroke="rgb(0,128,0)" />
	<polyline points="297.5,212.5 297.5,297.5 " fill="none" stroke-width="1" stroke="rgb(0,128,0)" />
	<polyline points="212.5,255 297.5,255 " fill="none" stroke-width="1" stroke="rgb(0,128,0)" />
	<polyline points="21.25,21.25 21.25,63.75 " fill="none" stroke-width="1" stroke="rgb(0,128,0)" />
	<polyline points="63.75,21.25 63.75,63.75 " fill="none" stroke-width="1" stroke="rgb(0,128,0)" />
	<polyline points="21.25,42.5 63.75,42.5 " fill="none" stroke-width="1" stroke="rgb(0,128,0)" />
	<polyline points="21.25,106.25 21.25,148.75 " fill="none" stroke-width="1" stroke="rgb(0,128,0)" />
	<polyline points="63.75,106.25 63.75,148.75 " fill="none" stroke-width="1" stroke="rgb(0,128,0)" />
	<polyline points="21.25,127.5 63.75,127.5 " fill="none" stroke-width="1" stroke="rgb(0,128,0)" />
	<polyline points="106.25,21.25 106.25,63.75 " fill="none" stroke-width="1" stroke="rgb(0,128,0)" />
	<polyline points="148.75,21.25 148.75,63.75 " fill="none" stroke-width="1" stroke="rgb(0,128,0)" />
	<polyline points="106.25,42.5 148.75,42.5 " fill="none" stroke-width="1" stroke="rgb(0,128,0)" />
	<polyline points="106.25,106.25 106.25,148.75 " fill="none" stroke-width="1" stroke="rgb(0,128,0)" />
	<polyline points="148.75,106.25 148.75,148.75 " fill="none" stroke-width="1" stroke="rgb(0,128,0)" />
	<polyline points="106.25,127.5 148.75,127.5 " fill="none" stroke-width="1" stroke="rgb(0,128,0)" />
	<polyline points="21.25,191.25 21.25,233.75 " fill="none" stroke-width="1" stroke="rgb(0,128,0)" />
	<polyline points="63.75,191.25 63.75,233.75 " fill="none" stroke-width="1" stroke="rgb(0,128,0)" />
	<polyline points="21.25,212.5 63.75,212.5 " fill="none" stroke-width="1" stroke="rgb(0,128,0)" />
	<polyline points="21.25,276.25 21.25,318.75 " fill="none" stroke-width="1" stroke="rgb(0,128,0)" />
	<polyline points="63.75,276.25 63.75,318.75 " fill="none" stroke-width="1" stroke="rgb(0,128,0)" />
	<polyline points="21.25,297.5 63.75,297.5 " fill="none" stroke-width="1" stroke="rgb(0,128,0)" />
	<polyline points="106.25,191.25 106.25,233.75 " fill="none" stroke-width="1" stroke="rgb(0,128,0)" />
	<polyline points="148.75,191.25 148.75,233.75 " fill="none" stroke-width="1" stroke="rgb(0,128,0)" />
	<polyline points="106.25,212.5 148.75,212.5 " fill="none" stroke-width="1" stroke="rgb(0,128,0)" />
	<polyline points="106.25,276.25 106.25,318.75 " fill="none" stroke-width="1" stroke="rgb(0,128,0)" />
	<polyline points="148.75,276.25 148.75,318.75 " fill="none" stroke-width="1" stroke="rgb(0,128,0)" />
	<polyline points="106.25,297.5 148.75,297.5 " fill="none" stroke-width="1" stroke="rgb(0,128,0)" />
	<polyline points="191.25,21.25 191.25,63.75 " fill="none" stroke-width="1" stroke="rgb(0,128,0)" />
	<polyline points="233.75,21.25 233.75,63.75 " fill="none" stroke-width="1" stroke="rgb(0,128,0)" />
	<polyline points="191.25,42.5 233.75,42.5 " fill="none" stroke-width="1" stroke="rgb(0,128,0)" />
	<polyline points="191.25,106.25 191.25,148.75 " fill="none" stroke-width="1" stroke="rgb(0,128,0)" />
	<polyline points="233.75,106.25 233.75,148.75 " fill="none" stroke-width="1" stroke="rgb(0,128,0)" />
	<polyline points="191.25,127.5 233.75,127.5 " fill="none" stroke-width="1" stroke="rgb(0,128,0)" />
	<polyline points="276.25,21.25 276.25,63.75 " fill="none" stroke-width="1" stroke="rgb(0,128,0)" />
	<polyline points="318.75,21.25 318.75,63.75 " fill="none" stroke-width="1" stroke="rgb(0,128,0)" />
	<polyline points="276.25,42.5 318.75,42.5 " fill="none" stroke-width="1" stroke="rgb(0,128,0)" />
	<polyline points="276.25,106.25 276.25,148.75 " fill="none" stroke-width="1" stroke="rgb(0,128,0)" />
	<polyline points="318.75,106.25 318.75,148.75 " fill="none" stroke-width="1" stroke="rgb(0,128,0)" />
	<polyline points="276.25,127.5 318.75,127.5 " fill="none" stroke-width="1" stroke="rgb(0,128,0)" />
	<polyline points="191.25,191.25 191.25,233.75 " fill="none" stroke-width="1" stroke="rgb(0,128,0)" />
	<polyline points="233.75,191.25 233.75,233.75 " fill="none" stroke-width="1" stroke="rgb(0,128,0)" />
	<polyline points="191.25,212.5 233.75,212.5 " fill="none" stroke-width="1" stroke="rgb(0,128,0)" />
	<polyline points="191.25,276.25 191.25,318.75 " fill="none" stroke-width="1" stroke="rgb(0,128,0)" />
	<polyline points="233.75,276.25 233.75,318.75 " fill="none" stroke-width="1" stroke="rgb(0,128,0)" />
	<polyline points="191.25,297.5 233.75,297.5 " fill="none" stroke-width="1" stroke="rgb(0,128,0)" />
	<polyline points="276.25,191.25 276.25,233.75 " fill="none" stroke-width="1" stroke="rgb(0,128,0)" />
	<polyline points="318.75,191.25 318.75,233.75 " fill="none" stroke-width="1" stroke="rgb(0,128,0)" />
	<polyline points="276.25,212.5 318.75,212.5 " fill="none" stroke-width="1" stroke="rgb(0,128,0)" />
	<polyline points="276.25,276.25 276.25,318.75 " fill="none" stroke-width="1" stroke="rgb(0,128,0)" />
	<polyline points="318.75,276.25 318.75,318.75 " fill="none" stroke-width="1" stroke="rgb(0,128,0)" />
	<polyline points="276.25,297.5 318.75,297.5 " fill="none" stroke-width="1" stroke="rgb(0,128,0)" />
</svg>
